<?xml version="1.0" standalone="no"?>
<!DOCTYPE svg PUBLIC "-//W3C//DTD SVG 20010904//EN"
 "http://www.w3.org/TR/2001/REC-SVG-20010904/DTD/svg10.dtd">
<svg version="1.0" xmlns="http://www.w3.org/2000/svg"
 width="500.000000pt" height="500.000000pt" viewBox="0 0 500.000000 500.000000"
 preserveAspectRatio="xMidYMid meet">

<g transform="translate(0.000000,500.000000) scale(0.100000,-0.100000)"
fill="#000000" stroke="none">
<path d="M125 4868 c-3 -7 -4 -1077 -3 -2378 l3 -2365 2384 -3 c1901 -2 2386
0 2393 10 9 15 11 4708 2 4732 -6 15 -225 16 -2390 16 -1899 0 -2386 -3 -2389
-12z m4743 -2374 l-3 -2339 -2344 -3 c-1290 -1 -2349 2 -2353 6 -4 4 -8 1059
-8 2343 l0 2334 2347 5 c1292 3 2351 3 2356 -1 4 -3 6 -1058 5 -2345z"/>
<path d="M260 4415 l0 -295 295 0 295 0 0 295 0 295 -295 0 -295 0 0 -295z
m560 0 l0 -265 -265 0 -265 0 0 265 0 265 265 0 265 0 0 -265z"/>
<path d="M546 4565 c-11 -28 -7 -120 6 -133 9 -9 9 -15 0 -24 -14 -14 -16
-116 -3 -137 8 -12 12 -12 25 -2 23 20 19 304 -5 309 -9 2 -19 -4 -23 -13z"/>
<path d="M952 4418 l3 -293 295 0 295 0 3 293 2 292 -300 0 -300 0 2 -292z
m568 -3 l0 -265 -270 0 -270 0 0 265 0 265 270 0 270 0 0 -265z"/>
<path d="M1190 4583 c-22 -9 -31 -26 -17 -35 7 -4 40 -8 75 -8 l62 0 0 -45 0
-45 -52 0 c-78 -1 -98 -21 -98 -98 0 -93 -1 -92 96 -92 82 0 83 0 75 23 -7 19
-17 22 -65 25 l-56 3 0 44 0 45 55 0 c78 0 95 17 95 97 0 81 -12 93 -93 92
-34 0 -69 -3 -77 -6z"/>
<path d="M4324 4636 c-114 -53 -168 -174 -133 -300 15 -53 100 -138 155 -154
101 -30 188 -9 261 64 54 53 73 97 73 168 0 134 -113 246 -250 246 -37 0 -72
-8 -106 -24z m226 -34 c137 -84 142 -279 8 -368 -152 -102 -352 1 -353 181 0
175 193 279 345 187z"/>
<path d="M1700 4225 l0 -345 1035 0 1035 0 0 345 0 345 -1035 0 -1035 0 0
-345z m2050 0 l0 -325 -1015 0 -1015 0 0 325 0 325 1015 0 1015 0 0 -325z"/>
<path d="M2104 4379 c-36 -10 -60 -56 -69 -135 -9 -74 8 -125 55 -168 45 -41
51 -42 100 -18 45 22 87 100 70 132 -17 31 -37 24 -44 -16 -9 -48 -38 -74 -81
-74 -42 0 -56 21 -58 93 -2 86 9 123 43 137 36 15 67 -1 90 -46 15 -29 29 -44
43 -44 4 0 7 29 7 64 0 46 -4 67 -16 77 -12 9 -17 10 -23 1 -5 -8 -17 -9 -41
-2 -19 6 -37 10 -40 9 -3 0 -19 -5 -36 -10z"/>
<path d="M2301 4371 c-15 -10 -7 -31 14 -31 18 0 23 -30 25 -152 0 -87 -2
-108 -13 -108 -8 0 -20 -6 -26 -14 -10 -12 -8 -17 7 -25 10 -5 27 -8 38 -6 10
2 31 6 47 10 31 6 36 30 7 38 -17 4 -20 14 -20 59 0 64 26 98 77 98 35 0 39
-7 42 -93 2 -53 0 -58 -23 -67 -48 -18 -31 -37 33 -39 69 -1 84 12 48 43 -23
19 -25 28 -25 91 0 59 -3 72 -22 87 -27 22 -73 23 -105 2 -23 -15 -24 -15 -29
8 -3 12 -7 41 -8 63 -3 34 -6 40 -28 43 -14 1 -31 -2 -39 -7z"/>
<path d="M3117 4373 c-14 -14 -6 -32 16 -35 21 -3 22 -7 25 -121 l3 -117 -26
-10 c-58 -22 -15 -57 55 -45 48 8 58 20 30 35 -25 13 -26 32 -2 54 18 15 20
15 36 -3 11 -12 16 -31 14 -52 -2 -28 1 -34 21 -39 13 -3 41 -4 63 -2 33 4 39
7 36 26 -2 14 -11 22 -29 24 -36 4 -97 87 -82 111 12 19 47 38 85 46 19 4 26
10 22 20 -5 11 -22 15 -65 15 -55 0 -59 -2 -59 -23 0 -13 -13 -36 -29 -51
l-28 -27 -6 53 c-4 29 -7 72 -7 94 0 35 -4 43 -22 48 -30 8 -43 7 -51 -1z"/>
<path d="M2658 4274 c-101 -54 -54 -234 61 -234 41 0 101 32 101 55 0 19 -34
19 -50 0 -20 -24 -77 -19 -107 11 -16 16 -22 29 -16 35 5 5 44 10 87 10 86 1
93 6 82 63 -12 62 -97 94 -158 60z m97 -36 c14 -6 25 -19 25 -29 0 -13 -10
-18 -51 -21 -27 -1 -60 1 -72 5 -22 8 -22 9 6 33 31 27 53 30 92 12z"/>
<path d="M2930 4283 c-29 -11 -50 -43 -61 -91 -14 -59 4 -102 54 -132 43 -27
85 -25 130 5 33 23 35 28 24 45 -15 25 -29 25 -52 0 -26 -29 -50 -33 -85 -15
-27 14 -30 20 -30 64 0 56 20 81 67 81 26 0 31 -5 37 -30 5 -25 10 -30 35 -30
57 0 45 77 -15 100 -27 11 -80 12 -104 3z"/>
<path d="M260 3725 l0 -295 295 0 295 0 0 295 0 295 -295 0 -295 0 0 -295z
m560 0 l0 -265 -265 0 -265 0 0 265 0 265 265 0 265 0 0 -265z"/>
<path d="M495 3893 c-26 -7 -37 -25 -22 -35 7 -4 40 -8 75 -8 l62 0 0 -45 0
-45 -54 0 c-35 0 -58 -5 -66 -15 -20 -24 -2 -35 61 -35 l59 0 0 -45 0 -45 -49
0 c-64 0 -103 -14 -95 -35 8 -20 166 -22 182 -2 7 8 11 67 11 150 0 163 -2
168 -87 166 -31 -1 -66 -4 -77 -6z"/>
<path d="M952 3728 l3 -293 295 0 295 0 3 293 2 292 -300 0 -300 0 2 -292z
m568 -3 l0 -265 -270 0 -270 0 0 265 0 265 270 0 270 0 0 -265z"/>
<path d="M1317 3873 c-4 -3 -7 -33 -7 -65 l0 -58 -49 0 -50 0 -3 51 c-2 43 -7
53 -25 60 -22 8 -23 7 -23 -60 0 -86 13 -101 93 -101 l57 0 0 -57 c0 -69 11
-93 34 -74 12 10 15 39 15 147 0 75 -3 142 -6 150 -5 15 -25 19 -36 7z"/>
<path d="M1680 1970 l0 -1570 1535 0 1535 0 0 1570 0 1570 -1535 0 -1535 0 0
-1570z m3050 0 l0 -1550 -1515 0 -1515 0 0 1550 0 1550 1515 0 1515 0 0 -1550z"/>
<path d="M1810 3065 l0 -335 325 0 325 0 0 335 0 335 -325 0 -325 0 0 -335z"/>
<path d="M2530 3065 l0 -335 325 0 325 0 0 335 0 335 -325 0 -325 0 0 -335z
m630 0 l0 -315 -305 0 -305 0 0 315 0 315 305 0 305 0 0 -315z"/>
<path d="M2842 3238 c-5 -7 -13 -34 -16 -60 -6 -41 -10 -47 -34 -50 -34 -4
-44 -38 -12 -38 31 0 22 -34 -10 -38 -39 -6 -46 -20 -16 -32 26 -9 26 -11 11
-39 -21 -41 -20 -83 2 -79 10 2 24 25 36 61 12 36 24 57 34 57 16 0 15 -23 -3
-93 -6 -25 -4 -28 12 -25 13 2 25 21 38 60 16 52 21 57 50 60 38 4 41 22 5 26
-36 4 -28 40 9 44 32 4 41 28 12 35 -15 4 -19 11 -15 22 21 49 24 76 12 88
-17 18 -37 2 -41 -35 -7 -52 -16 -70 -36 -75 -24 -6 -26 10 -5 59 15 37 11 64
-10 64 -7 0 -17 -6 -23 -12z m36 -165 c-5 -26 -38 -29 -38 -4 0 15 6 21 21 21
14 0 19 -5 17 -17z"/>
<path d="M3250 3065 l0 -335 325 0 325 0 0 335 0 335 -325 0 -325 0 0 -335z
m630 0 l0 -315 -305 0 -305 0 0 315 0 315 305 0 305 0 0 -315z"/>
<path d="M3970 3065 l0 -335 325 0 325 0 0 335 0 335 -325 0 -325 0 0 -335z
m630 0 l0 -315 -305 0 -305 0 0 315 0 315 305 0 305 0 0 -315z"/>
<path d="M1810 2335 l0 -335 325 0 325 0 0 335 0 335 -325 0 -325 0 0 -335z
m630 0 l0 -315 -305 0 -305 0 0 315 0 315 305 0 305 0 0 -315z"/>
<path d="M2530 2335 l0 -335 325 0 325 0 0 335 0 335 -325 0 -325 0 0 -335z"/>
<path d="M3250 2335 l0 -335 325 0 325 0 0 335 0 335 -325 0 -325 0 0 -335z
m630 0 l0 -315 -305 0 -305 0 0 315 0 315 305 0 305 0 0 -315z"/>
<path d="M3970 2335 l0 -335 325 0 325 0 0 335 0 335 -325 0 -325 0 0 -335z
m630 0 l0 -315 -305 0 -305 0 0 315 0 315 305 0 305 0 0 -315z"/>
<path d="M1810 1595 l0 -335 325 0 325 0 0 335 0 335 -325 0 -325 0 0 -335z"/>
<path d="M2530 1595 l0 -335 325 0 325 0 0 335 0 335 -325 0 -325 0 0 -335z
m630 0 l0 -315 -305 0 -305 0 0 315 0 315 305 0 305 0 0 -315z"/>
<path d="M3250 1595 l0 -335 325 0 325 0 0 335 0 335 -325 0 -325 0 0 -335z"/>
<path d="M3970 1595 l0 -335 325 0 325 0 0 335 0 335 -325 0 -325 0 0 -335z"/>
<path d="M1810 865 l0 -335 325 0 325 0 0 335 0 335 -325 0 -325 0 0 -335z
m630 0 l0 -315 -305 0 -305 0 0 315 0 315 305 0 305 0 0 -315z"/>
<path d="M2530 865 l0 -335 325 0 325 0 0 335 0 335 -325 0 -325 0 0 -335z
m630 0 l0 -315 -305 0 -305 0 0 315 0 315 305 0 305 0 0 -315z"/>
<path d="M3250 865 l0 -335 325 0 325 0 0 335 0 335 -325 0 -325 0 0 -335z
m630 0 l0 -315 -305 0 -305 0 0 315 0 315 305 0 305 0 0 -315z"/>
<path d="M3970 865 l0 -335 325 0 325 0 0 335 0 335 -325 0 -325 0 0 -335z
m630 0 l0 -315 -305 0 -305 0 0 315 0 315 305 0 305 0 0 -315z"/>
<path d="M4282 1038 c-5 -7 -13 -34 -16 -60 -6 -41 -10 -47 -34 -50 -34 -4
-44 -38 -12 -38 31 0 22 -34 -10 -38 -39 -6 -46 -20 -16 -32 26 -9 26 -11 11
-39 -21 -41 -20 -83 2 -79 10 2 24 25 36 61 12 36 24 57 34 57 16 0 15 -23 -3
-93 -6 -25 -4 -28 12 -25 13 2 25 21 38 60 16 52 21 57 50 60 38 4 41 22 5 26
-36 4 -28 40 9 44 32 4 41 28 12 35 -15 4 -19 11 -15 22 21 49 24 76 12 88
-17 18 -37 2 -41 -35 -7 -52 -16 -70 -36 -75 -24 -6 -26 10 -5 59 15 37 11 64
-10 64 -7 0 -17 -6 -23 -12z m36 -165 c-5 -26 -38 -29 -38 -4 0 15 6 21 21 21
14 0 19 -5 17 -17z"/>
<path d="M260 3035 l0 -295 295 0 295 0 0 295 0 295 -295 0 -295 0 0 -295z
m560 0 l0 -265 -265 0 -265 0 0 265 0 265 265 0 265 0 0 -265z"/>
<path d="M478 3199 c-14 -8 -18 -24 -18 -78 0 -86 13 -101 93 -101 l57 0 0
-45 0 -45 -49 0 c-64 0 -103 -14 -95 -35 5 -12 24 -15 88 -15 50 0 87 5 94 12
7 7 12 39 12 73 0 81 -22 105 -98 105 l-52 0 0 45 0 45 60 0 c33 0 60 4 60 9
0 5 3 16 6 25 5 14 -4 16 -67 16 -41 0 -82 -5 -91 -11z"/>
<path d="M952 3038 l3 -293 295 0 295 0 3 293 2 292 -300 0 -300 0 2 -292z
m568 -3 l0 -265 -270 0 -270 0 0 265 0 265 270 0 270 0 0 -265z"/>
<path d="M1188 3199 c-15 -8 -17 -28 -17 -149 0 -77 2 -147 5 -155 8 -19 163
-22 182 -3 7 7 12 39 12 73 0 81 -22 105 -98 105 l-52 0 0 45 0 45 60 0 c33 0
60 4 60 9 0 5 3 16 6 25 5 14 -4 16 -67 16 -41 0 -82 -5 -91 -11z m132 -224
l0 -45 -50 0 -50 0 0 45 0 45 50 0 50 0 0 -45z"/>
<path d="M260 2345 l0 -295 295 0 295 0 0 295 0 295 -295 0 -295 0 0 -295z
m560 0 l0 -265 -265 0 -265 0 0 265 0 265 265 0 265 0 0 -265z"/>
<path d="M495 2503 c-29 -8 -35 -21 -35 -89 0 -69 4 -78 31 -61 14 9 19 23 19
53 0 42 0 42 43 46 23 3 45 3 50 1 4 -2 7 -23 7 -47 0 -23 5 -47 12 -54 9 -9
9 -15 0 -24 -14 -14 -16 -116 -3 -137 8 -12 12 -12 25 -2 22 19 22 283 0 306
-15 15 -102 19 -149 8z"/>
<path d="M950 2345 l0 -295 298 2 297 3 3 293 2 292 -300 0 -300 0 0 -295z
m570 0 l0 -265 -270 0 -270 0 0 265 0 265 270 0 270 0 0 -265z"/>
<path d="M1205 2503 c-11 -3 -23 -10 -27 -17 -9 -13 -10 -269 -2 -291 8 -20
166 -22 182 -2 7 8 11 67 11 150 0 163 -2 168 -87 166 -31 -1 -66 -4 -77 -6z
m113 -91 l3 -42 -50 0 -51 0 0 39 c0 39 1 40 38 44 55 5 57 4 60 -41z m2 -137
l0 -45 -50 0 -50 0 0 45 0 45 50 0 50 0 0 -45z"/>
<path d="M260 1655 l0 -295 295 0 295 0 0 295 0 295 -295 0 -295 0 0 -295z
m560 0 l0 -265 -265 0 -265 0 0 265 0 265 265 0 265 0 0 -265z"/>
<path d="M495 1813 c-29 -8 -35 -21 -35 -89 0 -79 15 -94 93 -94 l57 0 0 -45
0 -45 -49 0 c-64 0 -103 -14 -95 -35 8 -20 166 -22 182 -2 7 8 11 67 11 150 0
163 -2 168 -87 166 -31 -1 -66 -4 -77 -6z m113 -91 l3 -42 -50 0 -51 0 0 39
c0 39 1 40 38 44 55 5 57 4 60 -41z"/>
<path d="M952 1658 l3 -293 295 0 295 0 0 290 0 290 -298 3 -297 2 2 -292z
m568 -3 l0 -265 -270 0 -270 0 0 265 0 265 270 0 270 0 0 -265z"/>
<path d="M1232 1810 c-22 -9 -22 -12 -20 -162 l3 -153 90 0 90 0 3 149 c2 101
-1 153 -9 162 -13 16 -120 18 -157 4z m118 -82 c0 -24 7 -49 17 -60 15 -17 15
-19 -1 -37 -10 -11 -17 -28 -16 -38 5 -48 2 -53 -45 -53 l-45 0 0 45 c0 31 -5
47 -17 54 -17 9 -17 10 0 28 9 11 17 35 17 56 0 34 2 36 38 40 20 2 40 4 45 5
4 1 7 -17 7 -40z"/>
<path d="M1126 1795 c-11 -28 -7 -120 6 -133 9 -9 9 -15 0 -24 -14 -14 -16
-116 -3 -137 8 -12 12 -12 25 -2 23 20 19 304 -5 309 -9 2 -19 -4 -23 -13z"/>
<path d="M777 1126 l-118 -144 -142 -60 c-78 -33 -168 -71 -200 -84 -33 -13
-59 -27 -59 -32 0 -10 81 -47 287 -132 l110 -45 90 -111 c128 -158 146 -178
159 -178 11 0 236 271 236 284 0 3 -108 6 -240 6 l-240 0 0 175 0 175 245 0
245 0 -117 143 c-63 78 -121 143 -127 145 -7 1 -65 -62 -129 -142z m190 19
c26 -33 63 -79 82 -102 l33 -43 -177 0 c-164 0 -175 1 -166 18 23 41 164 203
171 195 4 -4 30 -35 57 -68z m-350 -461 c-4 -4 -269 105 -280 116 -5 4 56 35
135 68 l143 60 3 -120 c1 -66 1 -122 -1 -124z m453 -89 c0 -8 -162 -205 -169
-204 -5 0 -103 117 -154 185 l-19 24 171 0 c94 0 171 -2 171 -5z"/>
<path d="M1140 806 c0 -91 4 -167 9 -170 4 -3 77 24 162 60 85 36 173 72 197
81 24 8 41 20 39 26 -4 13 -363 166 -389 167 -16 0 -18 -14 -18 -164z m243 41
c53 -22 94 -44 90 -48 -8 -6 -279 -119 -288 -119 -3 0 -5 56 -5 125 l0 125 53
-21 c28 -11 96 -39 150 -62z"/>
</g>
</svg>
